<svg width="179" height="56" viewBox="0 0 179 56" fill="none" xmlns="http://www.w3.org/2000/svg">
<rect width="179" height="56" fill="white"/>
<path d="M30.816 28.256C31.2213 28.32 31.5893 28.4853 31.92 28.752C32.2613 29.0187 32.528 29.3493 32.72 29.744C32.9227 30.1387 33.024 30.56 33.024 31.008C33.024 31.5733 32.88 32.0853 32.592 32.544C32.304 32.992 31.8827 33.3493 31.328 33.616C30.784 33.872 30.1387 34 29.392 34H25.232V22.848H29.232C29.9893 22.848 30.6347 22.976 31.168 23.232C31.7013 23.4773 32.1013 23.8133 32.368 24.24C32.6347 24.6667 32.768 25.1467 32.768 25.68C32.768 26.3413 32.5867 26.8907 32.224 27.328C31.872 27.7547 31.4027 28.064 30.816 28.256ZM26.688 27.664H29.136C29.8187 27.664 30.3467 27.504 30.72 27.184C31.0933 26.864 31.28 26.4213 31.28 25.856C31.28 25.2907 31.0933 24.848 30.72 24.528C30.3467 24.208 29.808 24.048 29.104 24.048H26.688V27.664ZM29.264 32.8C29.9893 32.8 30.5547 32.6293 30.96 32.288C31.3653 31.9467 31.568 31.472 31.568 30.864C31.568 30.2453 31.3547 29.76 30.928 29.408C30.5013 29.0453 29.9307 28.864 29.216 28.864H26.688V32.8H29.264ZM36.4685 22.848V29.904C36.4685 30.896 36.7085 31.632 37.1885 32.112C37.6792 32.592 38.3565 32.832 39.2205 32.832C40.0738 32.832 40.7405 32.592 41.2205 32.112C41.7112 31.632 41.9565 30.896 41.9565 29.904V22.848H43.4125V29.888C43.4125 30.816 43.2258 31.6 42.8525 32.24C42.4792 32.8693 41.9725 33.3387 41.3325 33.648C40.7032 33.9573 39.9938 34.112 39.2045 34.112C38.4152 34.112 37.7005 33.9573 37.0605 33.648C36.4312 33.3387 35.9298 32.8693 35.5565 32.24C35.1938 31.6 35.0125 30.816 35.0125 29.888V22.848H36.4685ZM49.3774 34.112C48.6414 34.112 47.98 33.984 47.3934 33.728C46.8174 33.4613 46.364 33.0987 46.0334 32.64C45.7027 32.1707 45.532 31.632 45.5214 31.024H47.0734C47.1267 31.5467 47.34 31.9893 47.7134 32.352C48.0974 32.704 48.652 32.88 49.3774 32.88C50.0707 32.88 50.6147 32.7093 51.0094 32.368C51.4147 32.016 51.6174 31.568 51.6174 31.024C51.6174 30.5973 51.5 30.2507 51.2654 29.984C51.0307 29.7173 50.7374 29.5147 50.3854 29.376C50.0334 29.2373 49.5587 29.088 48.9614 28.928C48.2254 28.736 47.6334 28.544 47.1854 28.352C46.748 28.16 46.3694 27.8613 46.0494 27.456C45.74 27.04 45.5854 26.4853 45.5854 25.792C45.5854 25.184 45.74 24.6453 46.0494 24.176C46.3587 23.7067 46.7907 23.344 47.3454 23.088C47.9107 22.832 48.556 22.704 49.2814 22.704C50.3267 22.704 51.18 22.9653 51.8414 23.488C52.5134 24.0107 52.892 24.704 52.9774 25.568H51.3774C51.324 25.1413 51.1 24.768 50.7054 24.448C50.3107 24.1173 49.788 23.952 49.1374 23.952C48.5294 23.952 48.0334 24.112 47.6494 24.432C47.2654 24.7413 47.0734 25.1787 47.0734 25.744C47.0734 26.1493 47.1854 26.48 47.4094 26.736C47.644 26.992 47.9267 27.1893 48.2574 27.328C48.5987 27.456 49.0734 27.6053 49.6814 27.776C50.4174 27.9787 51.0094 28.1813 51.4574 28.384C51.9054 28.576 52.2894 28.88 52.6094 29.296C52.9294 29.7013 53.0894 30.256 53.0894 30.96C53.0894 31.504 52.9454 32.016 52.6574 32.496C52.3694 32.976 51.9427 33.3653 51.3774 33.664C50.812 33.9627 50.1454 34.112 49.3774 34.112ZM56.688 22.848V34H55.232V22.848H56.688ZM67.9375 34H66.4815L60.6255 25.12V34H59.1695V22.832H60.6255L66.4815 31.696V22.832H67.9375V34ZM71.8755 24.032V27.76H75.9395V28.96H71.8755V32.8H76.4195V34H70.4195V22.832H76.4195V24.032H71.8755ZM82.1586 34.112C81.4226 34.112 80.7613 33.984 80.1746 33.728C79.5986 33.4613 79.1453 33.0987 78.8146 32.64C78.484 32.1707 78.3133 31.632 78.3026 31.024H79.8546C79.908 31.5467 80.1213 31.9893 80.4946 32.352C80.8786 32.704 81.4333 32.88 82.1586 32.88C82.852 32.88 83.396 32.7093 83.7906 32.368C84.196 32.016 84.3986 31.568 84.3986 31.024C84.3986 30.5973 84.2813 30.2507 84.0466 29.984C83.812 29.7173 83.5186 29.5147 83.1666 29.376C82.8146 29.2373 82.34 29.088 81.7426 28.928C81.0066 28.736 80.4146 28.544 79.9666 28.352C79.5293 28.16 79.1506 27.8613 78.8306 27.456C78.5213 27.04 78.3666 26.4853 78.3666 25.792C78.3666 25.184 78.5213 24.6453 78.8306 24.176C79.14 23.7067 79.572 23.344 80.1266 23.088C80.692 22.832 81.3373 22.704 82.0626 22.704C83.108 22.704 83.9613 22.9653 84.6226 23.488C85.2946 24.0107 85.6733 24.704 85.7586 25.568H84.1586C84.1053 25.1413 83.8813 24.768 83.4866 24.448C83.092 24.1173 82.5693 23.952 81.9186 23.952C81.3106 23.952 80.8146 24.112 80.4306 24.432C80.0466 24.7413 79.8546 25.1787 79.8546 25.744C79.8546 26.1493 79.9666 26.48 80.1906 26.736C80.4253 26.992 80.708 27.1893 81.0386 27.328C81.38 27.456 81.8546 27.6053 82.4626 27.776C83.1986 27.9787 83.7906 28.1813 84.2386 28.384C84.6866 28.576 85.0706 28.88 85.3906 29.296C85.7106 29.7013 85.8706 30.256 85.8706 30.96C85.8706 31.504 85.7266 32.016 85.4386 32.496C85.1506 32.976 84.724 33.3653 84.1586 33.664C83.5933 33.9627 82.9266 34.112 82.1586 34.112ZM91.5493 34.112C90.8133 34.112 90.1519 33.984 89.5653 33.728C88.9893 33.4613 88.5359 33.0987 88.2053 32.64C87.8746 32.1707 87.7039 31.632 87.6933 31.024H89.2453C89.2986 31.5467 89.5119 31.9893 89.8853 32.352C90.2693 32.704 90.8239 32.88 91.5493 32.88C92.2426 32.88 92.7866 32.7093 93.1813 32.368C93.5866 32.016 93.7893 31.568 93.7893 31.024C93.7893 30.5973 93.6719 30.2507 93.4373 29.984C93.2026 29.7173 92.9093 29.5147 92.5573 29.376C92.2053 29.2373 91.7306 29.088 91.1333 28.928C90.3973 28.736 89.8053 28.544 89.3573 28.352C88.9199 28.16 88.5413 27.8613 88.2213 27.456C87.9119 27.04 87.7573 26.4853 87.7573 25.792C87.7573 25.184 87.9119 24.6453 88.2213 24.176C88.5306 23.7067 88.9626 23.344 89.5173 23.088C90.0826 22.832 90.7279 22.704 91.4533 22.704C92.4986 22.704 93.3519 22.9653 94.0133 23.488C94.6853 24.0107 95.0639 24.704 95.1493 25.568H93.5493C93.4959 25.1413 93.2719 24.768 92.8773 24.448C92.4826 24.1173 91.9599 23.952 91.3093 23.952C90.7013 23.952 90.2053 24.112 89.8213 24.432C89.4373 24.7413 89.2453 25.1787 89.2453 25.744C89.2453 26.1493 89.3573 26.48 89.5813 26.736C89.8159 26.992 90.0986 27.1893 90.4293 27.328C90.7706 27.456 91.2453 27.6053 91.8533 27.776C92.5893 27.9787 93.1813 28.1813 93.6293 28.384C94.0773 28.576 94.4613 28.88 94.7812 29.296C95.1013 29.7013 95.2613 30.256 95.2613 30.96C95.2613 31.504 95.1173 32.016 94.8293 32.496C94.5413 32.976 94.1146 33.3653 93.5493 33.664C92.9839 33.9627 92.3173 34.112 91.5493 34.112Z" fill="url(#paint0_linear_128_3736)"/>
<defs>
<linearGradient id="paint0_linear_128_3736" x1="54.5012" y1="13.12" x2="146.882" y2="50.3263" gradientUnits="userSpaceOnUse">
<stop stop-color="#002F52"/>
<stop offset="1" stop-color="#326589"/>
</linearGradient>
</defs>
</svg>
