<svg width="179" height="64" viewBox="0 0 179 64" fill="none" xmlns="http://www.w3.org/2000/svg">
<rect width="179" height="64" fill="white"/>
<path d="M28.704 22.848C29.92 22.848 30.9707 23.0773 31.856 23.536C32.752 23.984 33.4347 24.6293 33.904 25.472C34.384 26.3147 34.624 27.3067 34.624 28.448C34.624 29.5893 34.384 30.5813 33.904 31.424C33.4347 32.256 32.752 32.896 31.856 33.344C30.9707 33.7813 29.92 34 28.704 34H25.232V22.848H28.704ZM28.704 32.8C30.144 32.8 31.2427 32.4213 32 31.664C32.7573 30.896 33.136 29.824 33.136 28.448C33.136 27.0613 32.752 25.9787 31.984 25.2C31.2267 24.4213 30.1333 24.032 28.704 24.032H26.688V32.8H28.704ZM38.0005 24.032V27.76H42.0645V28.96H38.0005V32.8H42.5445V34H36.5445V22.832H42.5445V24.032H38.0005ZM48.2836 34.112C47.5476 34.112 46.8863 33.984 46.2996 33.728C45.7236 33.4613 45.2703 33.0987 44.9396 32.64C44.609 32.1707 44.4383 31.632 44.4276 31.024H45.9796C46.033 31.5467 46.2463 31.9893 46.6196 32.352C47.0036 32.704 47.5583 32.88 48.2836 32.88C48.977 32.88 49.521 32.7093 49.9156 32.368C50.321 32.016 50.5236 31.568 50.5236 31.024C50.5236 30.5973 50.4063 30.2507 50.1716 29.984C49.937 29.7173 49.6436 29.5147 49.2916 29.376C48.9396 29.2373 48.465 29.088 47.8676 28.928C47.1316 28.736 46.5396 28.544 46.0916 28.352C45.6543 28.16 45.2756 27.8613 44.9556 27.456C44.6463 27.04 44.4916 26.4853 44.4916 25.792C44.4916 25.184 44.6463 24.6453 44.9556 24.176C45.265 23.7067 45.697 23.344 46.2516 23.088C46.817 22.832 47.4623 22.704 48.1876 22.704C49.233 22.704 50.0863 22.9653 50.7476 23.488C51.4196 24.0107 51.7983 24.704 51.8836 25.568H50.2836C50.2303 25.1413 50.0063 24.768 49.6116 24.448C49.217 24.1173 48.6943 23.952 48.0436 23.952C47.4356 23.952 46.9396 24.112 46.5556 24.432C46.1716 24.7413 45.9796 25.1787 45.9796 25.744C45.9796 26.1493 46.0916 26.48 46.3156 26.736C46.5503 26.992 46.833 27.1893 47.1636 27.328C47.505 27.456 47.9796 27.6053 48.5876 27.776C49.3236 27.9787 49.9156 28.1813 50.3636 28.384C50.8116 28.576 51.1956 28.88 51.5156 29.296C51.8356 29.7013 51.9956 30.256 51.9956 30.96C51.9956 31.504 51.8516 32.016 51.5636 32.496C51.2756 32.976 50.849 33.3653 50.2836 33.664C49.7183 33.9627 49.0516 34.112 48.2836 34.112ZM55.5943 22.848V34H54.1383V22.848H55.5943ZM66.5238 26.08C66.2144 25.4293 65.7664 24.928 65.1798 24.576C64.5931 24.2133 63.9104 24.032 63.1318 24.032C62.3531 24.032 61.6491 24.2133 61.0198 24.576C60.4011 24.928 59.9104 25.44 59.5478 26.112C59.1958 26.7733 59.0198 27.5413 59.0198 28.416C59.0198 29.2907 59.1958 30.0587 59.5478 30.72C59.9104 31.3813 60.4011 31.8933 61.0198 32.256C61.6491 32.608 62.3531 32.784 63.1318 32.784C64.2198 32.784 65.1158 32.4587 65.8198 31.808C66.5238 31.1573 66.9344 30.2773 67.0518 29.168H62.6038V27.984H68.6038V29.104C68.5184 30.0213 68.2304 30.864 67.7398 31.632C67.2491 32.3893 66.6038 32.992 65.8038 33.44C65.0038 33.8773 64.1131 34.096 63.1318 34.096C62.0971 34.096 61.1531 33.856 60.2998 33.376C59.4464 32.8853 58.7691 32.208 58.2678 31.344C57.7771 30.48 57.5318 29.504 57.5318 28.416C57.5318 27.328 57.7771 26.352 58.2678 25.488C58.7691 24.6133 59.4464 23.936 60.2998 23.456C61.1531 22.9653 62.0971 22.72 63.1318 22.72C64.3158 22.72 65.3611 23.0133 66.2678 23.6C67.1851 24.1867 67.8518 25.0133 68.2678 26.08H66.5238ZM79.2969 34H77.8409L71.9849 25.12V34H70.5289V22.832H71.9849L77.8409 31.696V22.832H79.2969V34ZM94.6045 34L93.1485 32.528C92.6045 33.0933 92.0232 33.5147 91.4045 33.792C90.7858 34.0587 90.0872 34.192 89.3085 34.192C88.5405 34.192 87.8578 34.0533 87.2605 33.776C86.6738 33.4987 86.2152 33.104 85.8845 32.592C85.5645 32.08 85.4045 31.4827 85.4045 30.8C85.4045 30.0213 85.6232 29.3387 86.0605 28.752C86.5085 28.1547 87.1645 27.6853 88.0285 27.344C87.6872 26.9387 87.4418 26.5653 87.2925 26.224C87.1432 25.8827 87.0685 25.5093 87.0685 25.104C87.0685 24.6347 87.1858 24.2133 87.4205 23.84C87.6658 23.456 88.0125 23.1573 88.4605 22.944C88.9085 22.7307 89.4258 22.624 90.0125 22.624C90.5885 22.624 91.0898 22.736 91.5165 22.96C91.9432 23.184 92.2632 23.4987 92.4765 23.904C92.6898 24.2987 92.7858 24.7413 92.7645 25.232H91.3085C91.3192 24.7947 91.1965 24.4533 90.9405 24.208C90.6845 23.952 90.3538 23.824 89.9485 23.824C89.5218 23.824 89.1752 23.9467 88.9085 24.192C88.6525 24.4267 88.5245 24.7307 88.5245 25.104C88.5245 25.424 88.6098 25.7333 88.7805 26.032C88.9618 26.3307 89.2605 26.6987 89.6765 27.136L93.0045 30.48L93.2925 30.032L94.3805 28.208H95.9485L94.6365 30.48C94.4552 30.8 94.2418 31.136 93.9965 31.488L96.5085 34H94.6045ZM89.3085 32.944C89.8845 32.944 90.4018 32.832 90.8605 32.608C91.3298 32.384 91.7725 32.0373 92.1885 31.568L88.9085 28.272C87.5432 28.7947 86.8605 29.6213 86.8605 30.752C86.8605 31.3813 87.0845 31.904 87.5325 32.32C87.9912 32.736 88.5832 32.944 89.3085 32.944ZM103.562 22.848V29.904C103.562 30.896 103.802 31.632 104.282 32.112C104.773 32.592 105.45 32.832 106.314 32.832C107.168 32.832 107.834 32.592 108.314 32.112C108.805 31.632 109.05 30.896 109.05 29.904V22.848H110.506V29.888C110.506 30.816 110.32 31.6 109.946 32.24C109.573 32.8693 109.066 33.3387 108.426 33.648C107.797 33.9573 107.088 34.112 106.298 34.112C105.509 34.112 104.794 33.9573 104.154 33.648C103.525 33.3387 103.024 32.8693 102.65 32.24C102.288 31.6 102.106 30.816 102.106 29.888V22.848H103.562ZM117.495 28.432L120.919 34H119.271L116.599 29.648L114.055 34H112.439L115.847 28.432L112.423 22.848H114.055L116.743 27.216L119.303 22.848H120.935L117.495 28.432Z" fill="url(#paint0_linear_128_3738)"/>
<defs>
<linearGradient id="paint0_linear_128_3738" x1="64.9468" y1="13.12" x2="176.477" y2="73.4221" gradientUnits="userSpaceOnUse">
<stop stop-color="#002F52"/>
<stop offset="1" stop-color="#326589"/>
</linearGradient>
</defs>
</svg>
