<svg width="129" height="44" viewBox="0 0 129 44" fill="none" xmlns="http://www.w3.org/2000/svg">
<path d="M17.536 16.848V18.032H12.688V21.792H16.624V22.976H12.688V28H11.232V16.848H17.536ZM25.8865 25.52H21.0225L20.1265 28H18.5905L22.6225 16.912H24.3025L28.3185 28H26.7825L25.8865 25.52ZM25.4705 24.336L23.4545 18.704L21.4385 24.336H25.4705ZM39.2918 16.848L35.0838 28H33.4038L29.1958 16.848H30.7478L34.2518 26.464L37.7558 16.848H39.2918ZM45.9443 28.112C44.9096 28.112 43.9656 27.872 43.1123 27.392C42.2589 26.9013 41.5816 26.224 41.0803 25.36C40.5896 24.4853 40.3443 23.504 40.3443 22.416C40.3443 21.328 40.5896 20.352 41.0803 19.488C41.5816 18.6133 42.2589 17.936 43.1123 17.456C43.9656 16.9653 44.9096 16.72 45.9443 16.72C46.9896 16.72 47.9389 16.9653 48.7923 17.456C49.6456 17.936 50.3176 18.608 50.8083 19.472C51.2989 20.336 51.5443 21.3173 51.5443 22.416C51.5443 23.5147 51.2989 24.496 50.8083 25.36C50.3176 26.224 49.6456 26.9013 48.7923 27.392C47.9389 27.872 46.9896 28.112 45.9443 28.112ZM45.9443 26.848C46.7229 26.848 47.4216 26.6667 48.0403 26.304C48.6696 25.9413 49.1603 25.424 49.5123 24.752C49.8749 24.08 50.0563 23.3013 50.0563 22.416C50.0563 21.52 49.8749 20.7413 49.5123 20.08C49.1603 19.408 48.6749 18.8907 48.0563 18.528C47.4376 18.1653 46.7336 17.984 45.9443 17.984C45.1549 17.984 44.4509 18.1653 43.8323 18.528C43.2136 18.8907 42.7229 19.408 42.3603 20.08C42.0083 20.7413 41.8323 21.52 41.8323 22.416C41.8323 23.3013 42.0083 24.08 42.3603 24.752C42.7229 25.424 43.2136 25.9413 43.8323 26.304C44.4616 26.6667 45.1656 26.848 45.9443 26.848ZM59.3384 28L56.6824 23.44H54.9224V28H53.4664V16.848H57.0664C57.909 16.848 58.6184 16.992 59.1944 17.28C59.781 17.568 60.2184 17.9573 60.5064 18.448C60.7944 18.9387 60.9384 19.4987 60.9384 20.128C60.9384 20.896 60.7144 21.5733 60.2664 22.16C59.829 22.7467 59.1677 23.136 58.2824 23.328L61.0824 28H59.3384ZM54.9224 22.272H57.0664C57.8557 22.272 58.4477 22.08 58.8424 21.696C59.237 21.3013 59.4344 20.7787 59.4344 20.128C59.4344 19.4667 59.237 18.9547 58.8424 18.592C58.4584 18.2293 57.8664 18.048 57.0664 18.048H54.9224V22.272ZM64.6568 16.848V28H63.2008V16.848H64.6568ZM74.0023 16.848V18.032H70.9623V28H69.5063V18.032H66.4503V16.848H74.0023ZM80.8505 28.112C79.8158 28.112 78.8718 27.872 78.0185 27.392C77.1652 26.9013 76.4878 26.224 75.9865 25.36C75.4958 24.4853 75.2505 23.504 75.2505 22.416C75.2505 21.328 75.4958 20.352 75.9865 19.488C76.4878 18.6133 77.1652 17.936 78.0185 17.456C78.8718 16.9653 79.8158 16.72 80.8505 16.72C81.8958 16.72 82.8452 16.9653 83.6985 17.456C84.5518 17.936 85.2238 18.608 85.7145 19.472C86.2052 20.336 86.4505 21.3173 86.4505 22.416C86.4505 23.5147 86.2052 24.496 85.7145 25.36C85.2238 26.224 84.5518 26.9013 83.6985 27.392C82.8452 27.872 81.8958 28.112 80.8505 28.112ZM80.8505 26.848C81.6292 26.848 82.3278 26.6667 82.9465 26.304C83.5758 25.9413 84.0665 25.424 84.4185 24.752C84.7812 24.08 84.9625 23.3013 84.9625 22.416C84.9625 21.52 84.7812 20.7413 84.4185 20.08C84.0665 19.408 83.5812 18.8907 82.9625 18.528C82.3438 18.1653 81.6398 17.984 80.8505 17.984C80.0612 17.984 79.3572 18.1653 78.7385 18.528C78.1198 18.8907 77.6292 19.408 77.2665 20.08C76.9145 20.7413 76.7385 21.52 76.7385 22.416C76.7385 23.3013 76.9145 24.08 77.2665 24.752C77.6292 25.424 78.1198 25.9413 78.7385 26.304C79.3678 26.6667 80.0718 26.848 80.8505 26.848ZM91.9086 28.112C91.1726 28.112 90.5113 27.984 89.9246 27.728C89.3486 27.4613 88.8953 27.0987 88.5646 26.64C88.234 26.1707 88.0633 25.632 88.0526 25.024H89.6046C89.658 25.5467 89.8713 25.9893 90.2446 26.352C90.6286 26.704 91.1833 26.88 91.9086 26.88C92.602 26.88 93.146 26.7093 93.5406 26.368C93.946 26.016 94.1486 25.568 94.1486 25.024C94.1486 24.5973 94.0313 24.2507 93.7966 23.984C93.562 23.7173 93.2686 23.5147 92.9166 23.376C92.5646 23.2373 92.09 23.088 91.4926 22.928C90.7566 22.736 90.1646 22.544 89.7166 22.352C89.2793 22.16 88.9006 21.8613 88.5806 21.456C88.2713 21.04 88.1166 20.4853 88.1166 19.792C88.1166 19.184 88.2713 18.6453 88.5806 18.176C88.89 17.7067 89.322 17.344 89.8766 17.088C90.442 16.832 91.0873 16.704 91.8126 16.704C92.858 16.704 93.7113 16.9653 94.3726 17.488C95.0446 18.0107 95.4233 18.704 95.5086 19.568H93.9086C93.8553 19.1413 93.6313 18.768 93.2366 18.448C92.842 18.1173 92.3193 17.952 91.6686 17.952C91.0606 17.952 90.5646 18.112 90.1806 18.432C89.7966 18.7413 89.6046 19.1787 89.6046 19.744C89.6046 20.1493 89.7166 20.48 89.9406 20.736C90.1753 20.992 90.458 21.1893 90.7886 21.328C91.13 21.456 91.6046 21.6053 92.2126 21.776C92.9486 21.9787 93.5406 22.1813 93.9886 22.384C94.4366 22.576 94.8206 22.88 95.1406 23.296C95.4606 23.7013 95.6206 24.256 95.6206 24.96C95.6206 25.504 95.4766 26.016 95.1886 26.496C94.9006 26.976 94.474 27.3653 93.9086 27.664C93.3433 27.9627 92.6766 28.112 91.9086 28.112Z" fill="black"/>
</svg>
