<svg width="163" height="44" viewBox="0 0 163 44" fill="none" xmlns="http://www.w3.org/2000/svg">
<path d="M22.544 16.928V28H21.088V19.744L17.408 28H16.384L12.688 19.728V28H11.232V16.928H12.8L16.896 26.08L20.992 16.928H22.544ZM26.4693 16.848V28H25.0133V16.848H26.4693ZM37.7188 28H36.2628L30.4068 19.12V28H28.9508V16.832H30.4068L36.2628 25.696V16.832H37.7188V28ZM48.7928 16.848V28H47.3368V22.944H41.6568V28H40.2008V16.848H41.6568V21.744H47.3368V16.848H48.7928ZM57.8709 25.52H53.0069L52.1109 28H50.5749L54.6069 16.912H56.2869L60.3029 28H58.7669L57.8709 25.52ZM57.4549 24.336L55.4389 18.704L53.4229 24.336H57.4549ZM67.7818 18.032V21.76H71.8458V22.96H67.7818V26.8H72.3258V28H66.3258V16.832H72.3258V18.032H67.7818ZM78.0649 28.112C77.3289 28.112 76.6675 27.984 76.0809 27.728C75.5049 27.4613 75.0515 27.0987 74.7209 26.64C74.3902 26.1707 74.2195 25.632 74.2089 25.024H75.7609C75.8142 25.5467 76.0275 25.9893 76.4009 26.352C76.7849 26.704 77.3395 26.88 78.0649 26.88C78.7582 26.88 79.3022 26.7093 79.6969 26.368C80.1022 26.016 80.3049 25.568 80.3049 25.024C80.3049 24.5973 80.1875 24.2507 79.9529 23.984C79.7182 23.7173 79.4249 23.5147 79.0729 23.376C78.7209 23.2373 78.2462 23.088 77.6489 22.928C76.9129 22.736 76.3209 22.544 75.8729 22.352C75.4355 22.16 75.0569 21.8613 74.7369 21.456C74.4275 21.04 74.2729 20.4853 74.2729 19.792C74.2729 19.184 74.4275 18.6453 74.7369 18.176C75.0462 17.7067 75.4782 17.344 76.0329 17.088C76.5982 16.832 77.2435 16.704 77.9689 16.704C79.0142 16.704 79.8675 16.9653 80.5289 17.488C81.2009 18.0107 81.5795 18.704 81.6649 19.568H80.0649C80.0115 19.1413 79.7875 18.768 79.3929 18.448C78.9982 18.1173 78.4755 17.952 77.8249 17.952C77.2169 17.952 76.7209 18.112 76.3369 18.432C75.9529 18.7413 75.7609 19.1787 75.7609 19.744C75.7609 20.1493 75.8729 20.48 76.0969 20.736C76.3315 20.992 76.6142 21.1893 76.9449 21.328C77.2862 21.456 77.7609 21.6053 78.3689 21.776C79.1049 21.9787 79.6969 22.1813 80.1449 22.384C80.5929 22.576 80.9769 22.88 81.2969 23.296C81.6169 23.7013 81.7769 24.256 81.7769 24.96C81.7769 25.504 81.6329 26.016 81.3449 26.496C81.0569 26.976 80.6302 27.3653 80.0649 27.664C79.4995 27.9627 78.8329 28.112 78.0649 28.112ZM90.7835 16.848V18.032H87.7435V28H86.2875V18.032H83.2315V16.848H90.7835ZM99.1678 25.52H94.3038L93.4078 28H91.8717L95.9038 16.912H97.5838L101.6 28H100.064L99.1678 25.52ZM98.7518 24.336L96.7358 18.704L94.7198 24.336H98.7518ZM112.125 28H110.669L104.813 19.12V28H103.357V16.832H104.813L110.669 25.696V16.832H112.125V28ZM121.471 16.848V18.032H118.431V28H116.975V18.032H113.919V16.848H121.471ZM124.719 18.032V21.76H128.783V22.96H124.719V26.8H129.263V28H123.263V16.832H129.263V18.032H124.719Z" fill="black"/>
</svg>
