<svg width="179" height="56" viewBox="0 0 179 56" fill="none" xmlns="http://www.w3.org/2000/svg">
<rect width="179" height="56" fill="white"/>
<path d="M31.536 22.848V24.032H26.688V27.792H30.624V28.976H26.688V34H25.232V22.848H31.536ZM39.1665 34L36.5105 29.44H34.7505V34H33.2945V22.848H36.8945C37.7372 22.848 38.4465 22.992 39.0225 23.28C39.6092 23.568 40.0465 23.9573 40.3345 24.448C40.6225 24.9387 40.7665 25.4987 40.7665 26.128C40.7665 26.896 40.5425 27.5733 40.0945 28.16C39.6572 28.7467 38.9958 29.136 38.1105 29.328L40.9105 34H39.1665ZM34.7505 28.272H36.8945C37.6838 28.272 38.2758 28.08 38.6705 27.696C39.0652 27.3013 39.2625 26.7787 39.2625 26.128C39.2625 25.4667 39.0652 24.9547 38.6705 24.592C38.2865 24.2293 37.6945 24.048 36.8945 24.048H34.7505V28.272ZM48.0849 34.112C47.0502 34.112 46.1062 33.872 45.2529 33.392C44.3995 32.9013 43.7222 32.224 43.2209 31.36C42.7302 30.4853 42.4849 29.504 42.4849 28.416C42.4849 27.328 42.7302 26.352 43.2209 25.488C43.7222 24.6133 44.3995 23.936 45.2529 23.456C46.1062 22.9653 47.0502 22.72 48.0849 22.72C49.1302 22.72 50.0795 22.9653 50.9329 23.456C51.7862 23.936 52.4582 24.608 52.9489 25.472C53.4395 26.336 53.6849 27.3173 53.6849 28.416C53.6849 29.5147 53.4395 30.496 52.9489 31.36C52.4582 32.224 51.7862 32.9013 50.9329 33.392C50.0795 33.872 49.1302 34.112 48.0849 34.112ZM48.0849 32.848C48.8635 32.848 49.5622 32.6667 50.1809 32.304C50.8102 31.9413 51.3009 31.424 51.6529 30.752C52.0155 30.08 52.1969 29.3013 52.1969 28.416C52.1969 27.52 52.0155 26.7413 51.6529 26.08C51.3009 25.408 50.8155 24.8907 50.1969 24.528C49.5782 24.1653 48.8742 23.984 48.0849 23.984C47.2955 23.984 46.5915 24.1653 45.9729 24.528C45.3542 24.8907 44.8635 25.408 44.5009 26.08C44.1489 26.7413 43.9729 27.52 43.9729 28.416C43.9729 29.3013 44.1489 30.08 44.5009 30.752C44.8635 31.424 45.3542 31.9413 45.9729 32.304C46.6022 32.6667 47.3062 32.848 48.0849 32.848ZM64.375 34H62.919L57.063 25.12V34H55.607V22.832H57.063L62.919 31.696V22.832H64.375V34ZM73.721 22.848V24.032H70.681V34H69.225V24.032H66.169V22.848H73.721ZM81.5933 27.52V28.752H75.2093V27.52H81.5933ZM85.7818 24.032V27.76H89.8458V28.96H85.7818V32.8H90.3258V34H84.3258V22.832H90.3258V24.032H85.7818ZM101.297 34H99.8409L93.9849 25.12V34H92.5289V22.832H93.9849L99.8409 31.696V22.832H101.297V34ZM107.251 22.848C108.467 22.848 109.518 23.0773 110.403 23.536C111.299 23.984 111.982 24.6293 112.451 25.472C112.931 26.3147 113.171 27.3067 113.171 28.448C113.171 29.5893 112.931 30.5813 112.451 31.424C111.982 32.256 111.299 32.896 110.403 33.344C109.518 33.7813 108.467 34 107.251 34H103.779V22.848H107.251ZM107.251 32.8C108.691 32.8 109.79 32.4213 110.547 31.664C111.304 30.896 111.683 29.824 111.683 28.448C111.683 27.0613 111.299 25.9787 110.531 25.2C109.774 24.4213 108.68 24.032 107.251 24.032H105.235V32.8H107.251Z" fill="url(#paint0_linear_128_3732)"/>
<defs>
<linearGradient id="paint0_linear_128_3732" x1="61.6042" y1="13.12" x2="167.792" y2="65.8465" gradientUnits="userSpaceOnUse">
<stop stop-color="#002F52"/>
<stop offset="1" stop-color="#326589"/>
</linearGradient>
</defs>
</svg>
