<svg width="179" height="56" viewBox="0 0 179 56" fill="none" xmlns="http://www.w3.org/2000/svg">
<rect width="179" height="56" fill="white"/>
<path d="M26.688 22.848V34H25.232V22.848H26.688ZM37.9375 34H36.4815L30.6255 25.12V34H29.1695V22.832H30.6255L36.4815 31.696V22.832H37.9375V34ZM46.7235 22.848V24.032H41.8755V27.792H45.8115V28.976H41.8755V34H40.4195V22.848H46.7235ZM54.354 34L51.698 29.44H49.938V34H48.482V22.848H52.082C52.9247 22.848 53.634 22.992 54.21 23.28C54.7967 23.568 55.234 23.9573 55.522 24.448C55.81 24.9387 55.954 25.4987 55.954 26.128C55.954 26.896 55.73 27.5733 55.282 28.16C54.8447 28.7467 54.1833 29.136 53.298 29.328L56.098 34H54.354ZM49.938 28.272H52.082C52.8713 28.272 53.4633 28.08 53.858 27.696C54.2527 27.3013 54.45 26.7787 54.45 26.128C54.45 25.4667 54.2527 24.9547 53.858 24.592C53.474 24.2293 52.882 24.048 52.082 24.048H49.938V28.272ZM64.8084 31.52H59.9444L59.0484 34H57.5124L61.5444 22.912H63.2244L67.2404 34H65.7044L64.8084 31.52ZM64.3924 30.336L62.3764 24.704L60.3604 30.336H64.3924ZM70.4536 24.032V27.76H74.5176V28.96H70.4536V32.8H74.9976V34H68.9976V22.832H74.9976V24.032H70.4536ZM80.7368 34.112C80.0008 34.112 79.3394 33.984 78.7528 33.728C78.1768 33.4613 77.7234 33.0987 77.3928 32.64C77.0621 32.1707 76.8914 31.632 76.8808 31.024H78.4328C78.4861 31.5467 78.6994 31.9893 79.0728 32.352C79.4568 32.704 80.0114 32.88 80.7368 32.88C81.4301 32.88 81.9741 32.7093 82.3688 32.368C82.7741 32.016 82.9768 31.568 82.9768 31.024C82.9768 30.5973 82.8594 30.2507 82.6248 29.984C82.3901 29.7173 82.0968 29.5147 81.7448 29.376C81.3928 29.2373 80.9181 29.088 80.3208 28.928C79.5848 28.736 78.9928 28.544 78.5448 28.352C78.1074 28.16 77.7288 27.8613 77.4088 27.456C77.0994 27.04 76.9448 26.4853 76.9448 25.792C76.9448 25.184 77.0994 24.6453 77.4088 24.176C77.7181 23.7067 78.1501 23.344 78.7048 23.088C79.2701 22.832 79.9154 22.704 80.6408 22.704C81.6861 22.704 82.5394 22.9653 83.2008 23.488C83.8728 24.0107 84.2514 24.704 84.3368 25.568H82.7368C82.6834 25.1413 82.4594 24.768 82.0648 24.448C81.6701 24.1173 81.1474 23.952 80.4968 23.952C79.8888 23.952 79.3928 24.112 79.0088 24.432C78.6248 24.7413 78.4328 25.1787 78.4328 25.744C78.4328 26.1493 78.5448 26.48 78.7688 26.736C79.0034 26.992 79.2861 27.1893 79.6168 27.328C79.9581 27.456 80.4328 27.6053 81.0408 27.776C81.7768 27.9787 82.3688 28.1813 82.8168 28.384C83.2648 28.576 83.6488 28.88 83.9688 29.296C84.2888 29.7013 84.4488 30.256 84.4488 30.96C84.4488 31.504 84.3048 32.016 84.0168 32.496C83.7288 32.976 83.3021 33.3653 82.7368 33.664C82.1714 33.9627 81.5048 34.112 80.7368 34.112ZM93.4554 22.848V24.032H90.4154V34H88.9594V24.032H85.9034V22.848H93.4554ZM101.12 34L98.4636 29.44H96.7036V34H95.2476V22.848H98.8476C99.6903 22.848 100.4 22.992 100.976 23.28C101.562 23.568 102 23.9573 102.288 24.448C102.576 24.9387 102.72 25.4987 102.72 26.128C102.72 26.896 102.496 27.5733 102.048 28.16C101.61 28.7467 100.949 29.136 100.064 29.328L102.864 34H101.12ZM96.7036 28.272H98.8476C99.637 28.272 100.229 28.08 100.624 27.696C101.018 27.3013 101.216 26.7787 101.216 26.128C101.216 25.4667 101.018 24.9547 100.624 24.592C100.24 24.2293 99.6476 24.048 98.8476 24.048H96.7036V28.272ZM106.406 22.848V29.904C106.406 30.896 106.646 31.632 107.126 32.112C107.617 32.592 108.294 32.832 109.158 32.832C110.011 32.832 110.678 32.592 111.158 32.112C111.649 31.632 111.894 30.896 111.894 29.904V22.848H113.35V29.888C113.35 30.816 113.163 31.6 112.79 32.24C112.417 32.8693 111.91 33.3387 111.27 33.648C110.641 33.9573 109.931 34.112 109.142 34.112C108.353 34.112 107.638 33.9573 106.998 33.648C106.369 33.3387 105.867 32.8693 105.494 32.24C105.131 31.6 104.95 30.816 104.95 29.888V22.848H106.406ZM122.643 22.848V24.032H119.603V34H118.147V24.032H115.091V22.848H122.643ZM125.859 22.848V29.904C125.859 30.896 126.099 31.632 126.579 32.112C127.07 32.592 127.747 32.832 128.611 32.832C129.464 32.832 130.131 32.592 130.611 32.112C131.102 31.632 131.347 30.896 131.347 29.904V22.848H132.803V29.888C132.803 30.816 132.616 31.6 132.243 32.24C131.87 32.8693 131.363 33.3387 130.723 33.648C130.094 33.9573 129.384 34.112 128.595 34.112C127.806 34.112 127.091 33.9573 126.451 33.648C125.822 33.3387 125.32 32.8693 124.947 32.24C124.584 31.6 124.403 30.816 124.403 29.888V22.848H125.859ZM141.104 34L138.448 29.44H136.688V34H135.232V22.848H138.832C139.675 22.848 140.384 22.992 140.96 23.28C141.547 23.568 141.984 23.9573 142.272 24.448C142.56 24.9387 142.704 25.4987 142.704 26.128C142.704 26.896 142.48 27.5733 142.032 28.16C141.595 28.7467 140.933 29.136 140.048 29.328L142.848 34H141.104ZM136.688 28.272H138.832C139.621 28.272 140.213 28.08 140.608 27.696C141.003 27.3013 141.2 26.7787 141.2 26.128C141.2 25.4667 141.003 24.9547 140.608 24.592C140.224 24.2293 139.632 24.048 138.832 24.048H136.688V28.272ZM151.558 31.52H146.694L145.798 34H144.262L148.294 22.912H149.974L153.99 34H152.454L151.558 31.52ZM151.142 30.336L149.126 24.704L147.11 30.336H151.142Z" fill="url(#paint0_linear_128_3734)"/>
<defs>
<linearGradient id="paint0_linear_128_3734" x1="78.735" y1="13.12" x2="205.295" y2="104.59" gradientUnits="userSpaceOnUse">
<stop stop-color="#002F52"/>
<stop offset="1" stop-color="#326589"/>
</linearGradient>
</defs>
</svg>
