<svg width="179" height="64" viewBox="0 0 179 64" fill="none" xmlns="http://www.w3.org/2000/svg">
<rect width="179" height="64" fill="url(#paint0_linear_128_3730)"/>
<path d="M32.688 34.112C32.688 35.04 32.368 35.8133 31.728 36.432C31.0987 37.04 30.1333 37.344 28.832 37.344H26.688V42H25.232V30.848H28.832C30.0907 30.848 31.0453 31.152 31.696 31.76C32.3573 32.368 32.688 33.152 32.688 34.112ZM28.832 36.144C29.6427 36.144 30.24 35.968 30.624 35.616C31.008 35.264 31.2 34.7627 31.2 34.112C31.2 32.736 30.4107 32.048 28.832 32.048H26.688V36.144H28.832ZM40.3696 42L37.7136 37.44H35.9536V42H34.4976V30.848H38.0976C38.9403 30.848 39.6496 30.992 40.2256 31.28C40.8123 31.568 41.2496 31.9573 41.5376 32.448C41.8256 32.9387 41.9696 33.4987 41.9696 34.128C41.9696 34.896 41.7456 35.5733 41.2976 36.16C40.8603 36.7467 40.199 37.136 39.3136 37.328L42.1136 42H40.3696ZM35.9536 36.272H38.0976C38.887 36.272 39.479 36.08 39.8736 35.696C40.2683 35.3013 40.4656 34.7787 40.4656 34.128C40.4656 33.4667 40.2683 32.9547 39.8736 32.592C39.4896 32.2293 38.8976 32.048 38.0976 32.048H35.9536V36.272ZM49.288 42.112C48.2533 42.112 47.3093 41.872 46.456 41.392C45.6027 40.9013 44.9253 40.224 44.424 39.36C43.9333 38.4853 43.688 37.504 43.688 36.416C43.688 35.328 43.9333 34.352 44.424 33.488C44.9253 32.6133 45.6027 31.936 46.456 31.456C47.3093 30.9653 48.2533 30.72 49.288 30.72C50.3333 30.72 51.2827 30.9653 52.136 31.456C52.9893 31.936 53.6613 32.608 54.152 33.472C54.6427 34.336 54.888 35.3173 54.888 36.416C54.888 37.5147 54.6427 38.496 54.152 39.36C53.6613 40.224 52.9893 40.9013 52.136 41.392C51.2827 41.872 50.3333 42.112 49.288 42.112ZM49.288 40.848C50.0667 40.848 50.7653 40.6667 51.384 40.304C52.0133 39.9413 52.504 39.424 52.856 38.752C53.2187 38.08 53.4 37.3013 53.4 36.416C53.4 35.52 53.2187 34.7413 52.856 34.08C52.504 33.408 52.0187 32.8907 51.4 32.528C50.7813 32.1653 50.0773 31.984 49.288 31.984C48.4987 31.984 47.7947 32.1653 47.176 32.528C46.5573 32.8907 46.0667 33.408 45.704 34.08C45.352 34.7413 45.176 35.52 45.176 36.416C45.176 37.3013 45.352 38.08 45.704 38.752C46.0667 39.424 46.5573 39.9413 47.176 40.304C47.8053 40.6667 48.5093 40.848 49.288 40.848ZM65.2581 34.08C64.9488 33.4293 64.5008 32.928 63.9141 32.576C63.3275 32.2133 62.6448 32.032 61.8661 32.032C61.0875 32.032 60.3835 32.2133 59.7541 32.576C59.1355 32.928 58.6448 33.44 58.2821 34.112C57.9301 34.7733 57.7541 35.5413 57.7541 36.416C57.7541 37.2907 57.9301 38.0587 58.2821 38.72C58.6448 39.3813 59.1355 39.8933 59.7541 40.256C60.3835 40.608 61.0875 40.784 61.8661 40.784C62.9541 40.784 63.8501 40.4587 64.5541 39.808C65.2581 39.1573 65.6688 38.2773 65.7861 37.168H61.3381V35.984H67.3381V37.104C67.2528 38.0213 66.9648 38.864 66.4741 39.632C65.9835 40.3893 65.3381 40.992 64.5381 41.44C63.7381 41.8773 62.8475 42.096 61.8661 42.096C60.8315 42.096 59.8875 41.856 59.0341 41.376C58.1808 40.8853 57.5035 40.208 57.0021 39.344C56.5115 38.48 56.2661 37.504 56.2661 36.416C56.2661 35.328 56.5115 34.352 57.0021 33.488C57.5035 32.6133 58.1808 31.936 59.0341 31.456C59.8875 30.9653 60.8315 30.72 61.8661 30.72C63.0501 30.72 64.0955 31.0133 65.0021 31.6C65.9195 32.1867 66.5861 33.0133 67.0021 34.08H65.2581ZM75.1353 42L72.4793 37.44H70.7193V42H69.2633V30.848H72.8633C73.7059 30.848 74.4153 30.992 74.9913 31.28C75.5779 31.568 76.0153 31.9573 76.3033 32.448C76.5913 32.9387 76.7353 33.4987 76.7353 34.128C76.7353 34.896 76.5113 35.5733 76.0633 36.16C75.6259 36.7467 74.9646 37.136 74.0793 37.328L76.8793 42H75.1353ZM70.7193 36.272H72.8633C73.6526 36.272 74.2446 36.08 74.6393 35.696C75.0339 35.3013 75.2313 34.7787 75.2313 34.128C75.2313 33.4667 75.0339 32.9547 74.6393 32.592C74.2553 32.2293 73.6633 32.048 72.8633 32.048H70.7193V36.272ZM85.5896 39.52H80.7256L79.8296 42H78.2936L82.3256 30.912H84.0056L88.0216 42H86.4856L85.5896 39.52ZM85.1736 38.336L83.1576 32.704L81.1416 38.336H85.1736ZM101.091 30.928V42H99.6349V33.744L95.9549 42H94.9309L91.2349 33.728V42H89.7789V30.928H91.3469L95.4429 40.08L99.5389 30.928H101.091ZM110.152 39.52H105.288L104.392 42H102.856L106.888 30.912H108.568L112.584 42H111.048L110.152 39.52ZM109.736 38.336L107.72 32.704L105.704 38.336H109.736ZM119.365 40.832C120.176 40.832 120.869 40.656 121.445 40.304C122.032 39.9413 122.48 39.424 122.789 38.752H124.533C124.149 39.7333 123.552 40.512 122.741 41.088C121.941 41.664 121.003 41.9947 119.925 42.08V42.928C120.555 42.9173 121.056 43.0507 121.429 43.328C121.803 43.6053 121.989 44 121.989 44.512C121.989 45.0133 121.808 45.4133 121.445 45.712C121.083 46.0107 120.613 46.16 120.037 46.16H118.197V45.216H119.749C120.101 45.216 120.357 45.1627 120.517 45.056C120.688 44.9493 120.773 44.768 120.773 44.512C120.773 44.2667 120.688 44.0907 120.517 43.984C120.357 43.8773 120.101 43.824 119.749 43.824H118.949V42.08C117.979 42.016 117.099 41.7387 116.309 41.248C115.531 40.7467 114.917 40.08 114.469 39.248C114.021 38.4053 113.797 37.4613 113.797 36.416C113.797 35.328 114.043 34.352 114.533 33.488C115.024 32.6133 115.691 31.9307 116.533 31.44C117.387 30.9493 118.331 30.704 119.365 30.704C120.581 30.704 121.643 30.9973 122.549 31.584C123.456 32.1707 124.117 33.0027 124.533 34.08H122.789C122.48 33.408 122.032 32.8907 121.445 32.528C120.869 32.1653 120.176 31.984 119.365 31.984C118.587 31.984 117.888 32.1653 117.269 32.528C116.651 32.8907 116.165 33.408 115.813 34.08C115.461 34.7413 115.285 35.52 115.285 36.416C115.285 37.3013 115.461 38.08 115.813 38.752C116.165 39.4133 116.651 39.9253 117.269 40.288C117.888 40.6507 118.587 40.832 119.365 40.832ZM133.293 39.52H128.429L127.533 42H125.997L130.029 30.912H131.709L135.725 42H134.189L133.293 39.52ZM132.877 38.336L130.861 32.704L128.845 38.336H132.877ZM128.509 29.968C128.583 29.424 128.759 29.008 129.037 28.72C129.325 28.432 129.682 28.288 130.109 28.288C130.311 28.288 130.482 28.3253 130.621 28.4C130.77 28.464 130.946 28.56 131.149 28.688C131.298 28.7947 131.431 28.88 131.549 28.944C131.666 28.9973 131.794 29.024 131.933 29.024C132.114 29.024 132.269 28.9653 132.397 28.848C132.525 28.7307 132.605 28.56 132.637 28.336H133.469C133.405 28.8693 133.229 29.28 132.941 29.568C132.653 29.856 132.295 30 131.869 30C131.666 30 131.485 29.968 131.325 29.904C131.175 29.8293 131.005 29.7227 130.813 29.584C130.642 29.4773 130.503 29.3973 130.397 29.344C130.301 29.2907 130.183 29.264 130.045 29.264C129.863 29.264 129.709 29.3227 129.581 29.44C129.463 29.5573 129.389 29.7333 129.357 29.968H128.509ZM142.538 42.112C141.503 42.112 140.559 41.872 139.706 41.392C138.853 40.9013 138.175 40.224 137.674 39.36C137.183 38.4853 136.938 37.504 136.938 36.416C136.938 35.328 137.183 34.352 137.674 33.488C138.175 32.6133 138.853 31.936 139.706 31.456C140.559 30.9653 141.503 30.72 142.538 30.72C143.583 30.72 144.533 30.9653 145.386 31.456C146.239 31.936 146.911 32.608 147.402 33.472C147.893 34.336 148.138 35.3173 148.138 36.416C148.138 37.5147 147.893 38.496 147.402 39.36C146.911 40.224 146.239 40.9013 145.386 41.392C144.533 41.872 143.583 42.112 142.538 42.112ZM142.538 40.848C143.317 40.848 144.015 40.6667 144.634 40.304C145.263 39.9413 145.754 39.424 146.106 38.752C146.469 38.08 146.65 37.3013 146.65 36.416C146.65 35.52 146.469 34.7413 146.106 34.08C145.754 33.408 145.269 32.8907 144.65 32.528C144.031 32.1653 143.327 31.984 142.538 31.984C141.749 31.984 141.045 32.1653 140.426 32.528C139.807 32.8907 139.317 33.408 138.954 34.08C138.602 34.7413 138.426 35.52 138.426 36.416C138.426 37.3013 138.602 38.08 138.954 38.752C139.317 39.424 139.807 39.9413 140.426 40.304C141.055 40.6667 141.759 40.848 142.538 40.848Z" fill="white"/>
<defs>
<linearGradient id="paint0_linear_128_3730" x1="74.7905" y1="-7.68002" x2="306.304" y2="78.0582" gradientUnits="userSpaceOnUse">
<stop stop-color="#002F52"/>
<stop offset="1" stop-color="#326589"/>
</linearGradient>
</defs>
</svg>
